<?xml version="1.0" encoding="UTF-8" standalone="no"?>
<svg xmlns="http://www.w3.org/2000/svg" width="1280" height="434" viewBox="0 0 1280 434">
<desc id="desc1">Created with Fabric.js 5.3.0</desc>
<defs id="defs1">
</defs>
<g
   transform="translate(640,512)"
   id="background-logo">
<rect
   style="opacity:1;fill:#ffffff;fill-opacity:0;fill-rule:nonzero;stroke:none;stroke-width:0;stroke-linecap:butt;stroke-linejoin:miter;stroke-miterlimit:4;stroke-dasharray:none;stroke-dashoffset:0"
   paint-order="stroke"
   x="-640"
   y="-512"
   rx="0"
   ry="0"
   width="1280"
   height="1024"
   id="rect1" />
</g>
<g
   transform="matrix(1.9520316,0,0,1.9520316,201.56075,214.81108)"
   id="logo-logo">
<g
   paint-order="stroke"
   id="g2">
		<g
   transform="scale(2.048089,-2.048089)"
   id="g1">
<path
   style="opacity:1;fill:#09428f;fill-rule:nonzero;stroke:none;stroke-width:1;stroke-linecap:butt;stroke-linejoin:miter;stroke-miterlimit:4;stroke-dasharray:none;stroke-dashoffset:0"
   paint-order="stroke"
   transform="translate(6.9468547,-30.3735)"
   d="M 0,0 C -0.269,0.27 -0.643,0.44 -1.017,0.414 -1.399,0.409 -1.761,0.249 -2.023,-0.029 -3.09,-1.162 -4.009,-2.082 -4.95,-2.972 c -0.594,0.321 -1.273,0.503 -1.995,0.503 -2.319,0 -4.199,-1.88 -4.199,-4.2 0,-2.319 1.88,-4.2 4.199,-4.2 2.32,0 4.2,1.881 4.2,4.2 0,0.569 -0.114,1.111 -0.319,1.605 0.687,0.648 1.363,1.31 2.087,2.055 l 4.64,-4.657 c -3.311,-3.326 -6.871,-6.45 -10.608,-9.309 -9.767,7.463 -18.069,16.492 -24.694,26.855 l 2.738,12.937 c 0.061,0.292 0.029,0.597 -0.094,0.87 -3.704,8.216 -7.034,18.984 -8.527,27.348 1.264,0.724 2.118,2.083 2.118,3.644 0,2.32 -1.88,4.2 -4.2,4.2 -2.32,0 -4.2,-1.88 -4.2,-4.2 0,-2.084 1.519,-3.808 3.51,-4.138 1.511,-8.445 4.832,-19.246 8.542,-27.59 l -2.762,-13.05 c -0.076,-0.359 -0.008,-0.733 0.188,-1.044 7.048,-11.155 15.976,-20.82 26.538,-28.725 0.25,-0.188 0.547,-0.281 0.844,-0.281 0.297,0 0.594,0.094 0.844,0.281 4.533,3.396 8.825,7.174 12.755,11.229 0.535,0.551 0.529,1.43 -0.013,1.974 z M 37.202,66.845 C 30.449,70.682 23.58,73.678 16.785,75.75 16.34,75.885 15.855,75.792 15.492,75.5 15.129,75.208 14.934,74.755 14.97,74.291 15.669,65.536 14.33,56.766 13.084,50.103 10.631,36.965 5.369,24.603 -2.134,14.351 c -0.395,-0.54 -0.355,-1.285 0.095,-1.78 L 4.425,5.474 C 4.704,5.168 5.1,4.997 5.517,5.015 5.931,5.03 6.318,5.227 6.573,5.553 17.512,19.48 24.518,36.009 26.852,53.375 c 1.898,0.403 3.322,2.088 3.322,4.106 0,2.32 -1.881,4.2 -4.2,4.2 -2.32,0 -4.2,-1.88 -4.2,-4.2 0,-1.628 0.928,-3.037 2.283,-3.734 C 21.863,37.425 15.421,21.861 5.377,8.612 l -4.564,5.011 c 7.392,10.402 12.584,22.81 15.04,35.963 1.179,6.312 2.441,14.481 2.055,22.851 5.686,-1.881 11.418,-4.424 17.078,-7.577 L 33.415,52.867 C 31.136,35.435 24.485,18.808 14.144,4.613 c -0.399,0.126 -0.825,0.195 -1.266,0.195 -2.32,0 -4.2,-1.881 -4.2,-4.2 0,-2.32 1.88,-4.2 4.2,-4.2 2.319,0 4.2,1.88 4.2,4.2 0,0.851 -0.255,1.641 -0.69,2.302 10.637,14.585 17.477,31.674 19.82,49.592 l 1.694,12.936 c 0.075,0.568 -0.202,1.124 -0.7,1.407 M -40.699,28.014 c -0.064,0 -0.126,-0.007 -0.19,-0.01 -3.144,7.988 -5.304,16.338 -6.42,24.863 L -48.88,64.86 c 5.706,3.176 11.477,5.732 17.193,7.615 0.049,-17.476 3.956,-34.906 11.075,-49.286 0.206,-0.416 0.603,-0.703 1.062,-0.769 0.067,-0.01 0.134,-0.014 0.2,-0.014 0.39,0 0.767,0.162 1.036,0.454 10.051,10.917 12.615,19.45 12.719,19.808 0.038,0.128 0.057,0.261 0.057,0.394 v 18.494 c 1.626,0.58 2.791,2.128 2.791,3.953 0,2.32 -1.88,4.2 -4.2,4.2 -2.319,0 -4.199,-1.88 -4.199,-4.2 0,-1.825 1.165,-3.373 2.791,-3.953 V 43.282 c -0.395,-1.181 -2.941,-8.142 -10.638,-16.961 -2.261,4.846 -4.147,10.028 -5.654,15.421 l 5.74,5.74 c 0.471,-0.182 0.981,-0.286 1.516,-0.286 2.319,0 4.2,1.88 4.2,4.2 0,2.319 -1.881,4.2 -4.2,4.2 -2.32,0 -4.2,-1.881 -4.2,-4.2 0,-0.753 0.2,-1.458 0.547,-2.069 l -4.434,-4.434 c -2.342,9.453 -3.519,19.478 -3.382,29.49 0.006,0.45 -0.203,0.875 -0.562,1.145 -0.36,0.271 -0.827,0.353 -1.257,0.222 -6.785,-2.069 -13.654,-5.065 -20.416,-8.905 -0.498,-0.283 -0.775,-0.839 -0.701,-1.407 l 1.694,-12.936 c 1.148,-8.766 3.37,-17.349 6.606,-25.562 -0.859,-0.769 -1.403,-1.883 -1.403,-3.126 0,-2.32 1.88,-4.2 4.2,-4.2 2.319,0 4.2,1.88 4.2,4.2 0,2.319 -1.881,4.2 -4.2,4.2 m 16.281,48.682 c 0,2.319 1.881,4.2 4.2,4.2 1.568,0 2.932,-0.86 3.654,-2.133 7.976,0.985 16.053,0.74 24.013,-0.732 0.659,-0.122 1.14,-0.69 1.152,-1.36 C 8.684,72.08 8.728,67.941 8.434,63.779 6.985,43.252 -1.044,23.718 -14.279,8.34 c 0.296,-0.576 0.466,-1.226 0.466,-1.918 0,-2.319 -1.88,-4.2 -4.199,-4.2 -2.32,0 -4.2,1.881 -4.2,4.2 0,2.32 1.88,4.2 4.2,4.2 0.598,0 1.165,-0.127 1.68,-0.352 12.793,14.907 20.553,33.826 21.957,53.707 0.261,3.699 0.247,7.42 0.18,11.485 -7.266,1.233 -14.62,1.402 -21.888,0.518 -0.34,-1.978 -2.059,-3.484 -4.135,-3.484 -2.319,0 -4.2,1.88 -4.2,4.2"
   stroke-linecap="round"
   id="path1" />
</g>
</g>
</g>
<g
   transform="matrix(1.9211538,0,0,1.9211538,830.62452,207.58703)"
   id="text-logo">
<g
   paint-order="stroke"
   id="g3">
		<g
   id="text-logo-path-0">
<path
   style="opacity:1;fill:#09428f;fill-rule:nonzero;stroke:#545455;stroke-width:0.931782;stroke-linecap:butt;stroke-linejoin:miter;stroke-miterlimit:4;stroke-dasharray:none;stroke-dashoffset:0"
   paint-order="stroke"
   transform="translate(-219.60406,40.48)"
   d="m 63.18,-1.87 13.1,-77.81 C 76.52,-81.2 75.7,-81.9 74.3,-81.9 H 47.62 c -1.29,0 -2.11,0.59 -2.22,1.99 l -5.97,49.26 c -0.12,0.93 -0.23,1.4 -0.23,1.4 -0.82,0 -1.29,-0.35 -1.41,-1.29 l -5.97,-49.37 c -0.11,-1.4 -0.93,-1.99 -2.22,-1.99 H 2.93 c -1.41,0 -2.23,0.7 -1.99,2.22 l 13.1,77.81 C 14.27,-0.59 15.09,0 16.38,0 h 44.46 c 1.29,0 2.11,-0.59 2.34,-1.87 z M 106,-33.93 c -21.53,0 -28.08,3.98 -28.08,17.2 0,13.22 9.83,17.67 28.67,17.67 15.56,0 24.92,-1.76 30.3,-4.57 1.05,-0.58 1.4,-1.4 1.4,-2.45 v -36.39 c 0,-10.65 -12.05,-19.31 -31.7,-19.31 -10.42,0 -16.5,0.59 -23.29,2.23 -1.17,0.35 -1.75,1.17 -1.75,2.34 v 16.38 c 0,1.4 0.82,2.22 2.22,2.1 l 25.98,-1.52 c 0.93,0 1.4,0.35 1.4,1.29 v 3.63 c 0,0.81 -0.59,1.4 -1.4,1.4 z m -2.34,15.56 v -6.55 c 0,-0.82 0.59,-1.41 1.41,-1.41 h 4.68 c 0.81,0 1.4,0.59 1.4,1.41 v 6.55 c 0,0.82 -0.59,1.41 -1.4,1.41 h -4.68 c -0.82,0 -1.41,-0.59 -1.41,-1.41 z M 166.49,0 h 37.21 c 1.28,0 2.1,-0.82 2.1,-2.11 v -56.62 c 0,-1.29 -0.82,-2.11 -2.1,-2.11 h -24.11 c -1.28,0 -2.1,0.82 -1.98,2.11 l 1.4,33.34 c 0,0.94 -0.35,1.4 -1.29,1.4 h -6.08 c -0.94,0 -1.29,-0.46 -1.29,-1.4 l 1.41,-33.34 c 0.11,-1.29 -0.71,-2.11 -1.99,-2.11 h -24.11 c -1.28,0 -2.1,0.82 -2.1,2.11 v 35.8 c 0,14.86 8.07,22.93 22.93,22.93 z m 75.58,-27.5 3.51,-0.46 c 0.94,-0.12 1.52,0.35 1.52,1.28 v 24.69 c 0,0.82 -0.35,1.4 -1.28,1.52 -4.33,0.94 -9.01,1.41 -15.56,1.41 -12.29,0 -17.55,-4.22 -17.55,-14.98 V -80.5 c 0,-0.81 0.58,-1.4 1.4,-1.4 h 24.34 c 0.82,0 1.4,0.59 1.4,1.4 v 51.02 c 0,1.4 0.82,2.22 2.22,1.98 z m 52.18,23.4 v -21.06 c 0,-1.4 -0.81,-2.1 -2.22,-1.87 l -12.4,1.76 c -0.94,0.11 -1.52,-0.35 -1.52,-1.29 v -11 c 0,-0.82 0.58,-1.4 1.4,-1.4 h 11.94 c 1.28,0 2.1,-0.82 2.1,-2.11 v -17.66 c 0,-1.29 -0.82,-2.11 -2.1,-2.11 h -11.94 c -0.82,0 -1.4,-0.59 -1.4,-1.4 v -9.01 c 0,-1.52 -0.94,-2.23 -2.34,-1.76 l -23.05,6.9 c -1.17,0.36 -1.75,1.29 -1.75,2.46 v 40.72 c 0,14.86 8.07,23.87 22.93,23.87 6.2,0 12.4,-0.47 18.72,-2.7 1.17,-0.35 1.63,-1.17 1.63,-2.34 z m 31.48,-29.83 c -21.53,0 -28.08,3.98 -28.08,17.2 0,13.22 9.83,17.67 28.66,17.67 15.56,0 24.92,-1.76 30.31,-4.57 1.05,-0.58 1.4,-1.4 1.4,-2.45 v -36.39 c 0,-10.65 -12.05,-19.31 -31.71,-19.31 -10.41,0 -16.49,0.59 -23.28,2.23 -1.17,0.35 -1.75,1.17 -1.75,2.34 v 16.38 c 0,1.4 0.81,2.22 2.22,2.1 l 25.97,-1.52 c 0.94,0 1.41,0.35 1.41,1.29 v 3.63 c 0,0.81 -0.59,1.4 -1.41,1.4 z m -2.34,15.56 v -6.55 c 0,-0.82 0.58,-1.41 1.4,-1.41 h 4.68 c 0.82,0 1.41,0.59 1.41,1.41 v 6.55 c 0,0.82 -0.59,1.41 -1.41,1.41 h -4.68 c -0.82,0 -1.4,-0.59 -1.4,-1.41 z M 410.2,0 h 26.21 c 1.52,0 2.22,-1.05 1.76,-2.46 l -12.76,-37.55 c -0.23,-0.59 -0.23,-1.29 0,-1.88 l 12.29,-37.67 c 0.47,-1.4 -0.24,-2.34 -1.76,-2.34 h -25.85 c -1.17,0 -1.99,0.47 -2.34,1.75 l -6.79,22.35 c -0.23,0.82 -1.05,1.52 -1.64,0.82 -0.12,-0.12 -0.12,-0.35 -0.23,-0.58 l -6.79,-22.59 c -0.35,-1.28 -1.17,-1.75 -2.34,-1.75 H 364.1 c -1.52,0 -2.22,0.94 -1.75,2.34 l 12.28,37.67 c 0.24,0.59 0.24,1.29 0,1.88 l -12.75,37.55 c -0.47,1.41 0.24,2.46 1.76,2.46 h 26.2 c 1.17,0 2.11,-0.59 2.46,-1.76 l 6.67,-20.12 c 0.23,-0.82 1.17,-1.4 1.64,-0.7 0.12,0.12 0.23,0.35 0.35,0.58 l 6.79,20.24 C 408.1,-0.59 409.03,0 410.2,0 Z"
   stroke-linecap="round"
   id="path2" />
</g>
</g>
</g>
</svg>
