<?xml version="1.0" encoding="UTF-8" standalone="no" ?>
<!DOCTYPE svg PUBLIC "-//W3C//DTD SVG 1.1//EN" "http://www.w3.org/Graphics/SVG/1.1/DTD/svg11.dtd">
<svg xmlns="http://www.w3.org/2000/svg" xmlns:xlink="http://www.w3.org/1999/xlink" version="1.1" width="1280" height="1024" viewBox="0 0 1280 1024" xml:space="preserve">
<desc>Created with Fabric.js 5.3.0</desc>
<defs>
</defs>
<g transform="matrix(1 0 0 1 640 512)" id="background-logo"  >
<rect style="stroke: none; stroke-width: 0; stroke-dasharray: none; stroke-linecap: butt; stroke-dashoffset: 0; stroke-linejoin: miter; stroke-miterlimit: 4; fill: rgb(255,255,255); fill-opacity: 0; fill-rule: nonzero; opacity: 1;"  paint-order="stroke"  x="-640" y="-512" rx="0" ry="0" width="1280" height="1024" />
</g>
<g transform="matrix(3.6244232181694995 0 0 3.6244232181694995 642.2634266208618 397.65489101118465)" id="logo-logo"  >
<g style=""  paint-order="stroke"   >
		<g transform="matrix(2.048089001856173 0 0 -2.048089001856173 0 0)"  >
<path style="stroke: none; stroke-width: 1; stroke-dasharray: none; stroke-linecap: butt; stroke-dashoffset: 0; stroke-linejoin: miter; stroke-miterlimit: 4; fill: rgb(9,66,143); fill-rule: nonzero; opacity: 1;"  paint-order="stroke"  transform=" translate(6.946854693010373, -30.37349999999999)" d="M 0 0 C -0.269 0.27 -0.643 0.44 -1.017 0.414 C -1.399 0.409 -1.761 0.249 -2.023 -0.029 C -3.09 -1.162 -4.009 -2.082 -4.95 -2.972 C -5.5440000000000005 -2.651 -6.223 -2.469 -6.945 -2.469 C -9.264 -2.469 -11.144 -4.349 -11.144 -6.6690000000000005 C -11.144 -8.988 -9.264 -10.869 -6.945 -10.869 C -4.625 -10.869 -2.745 -8.988 -2.745 -6.669 C -2.745 -6.1 -2.859 -5.558 -3.064 -5.064 C -2.377 -4.416 -1.701 -3.754 -0.9769999999999999 -3.009 L 3.663 -7.666 C 0.35199999999999987 -10.992 -3.2080000000000006 -14.116 -6.945 -16.975 C -16.712 -9.512 -25.014 -0.48300000000000054 -31.639 9.879999999999999 L -28.901 22.817 C -28.84 23.109 -28.872 23.414 -28.995 23.687 C -32.699 31.903 -36.029 42.67100000000001 -37.522 51.035 C -36.257999999999996 51.75899999999999 -35.403999999999996 53.117999999999995 -35.403999999999996 54.678999999999995 C -35.403999999999996 56.998999999999995 -37.284 58.879 -39.604 58.879 C -41.924 58.879 -43.804 56.998999999999995 -43.804 54.678999999999995 C -43.804 52.59499999999999 -42.285000000000004 50.870999999999995 -40.294000000000004 50.541 C -38.783 42.096 -35.462 31.294999999999998 -31.752000000000002 22.950999999999997 L -34.514 9.900999999999996 C -34.59 9.541999999999996 -34.522000000000006 9.167999999999996 -34.326 8.856999999999996 C -27.278 -2.2980000000000036 -18.35 -11.963000000000005 -7.788 -19.868000000000006 C -7.538 -20.056000000000004 -7.2410000000000005 -20.149000000000004 -6.944 -20.149000000000004 C -6.647 -20.149000000000004 -6.35 -20.055000000000003 -6.1 -19.868000000000006 C -1.5669999999999993 -16.472000000000005 2.7249999999999996 -12.694000000000006 6.655000000000001 -8.639000000000006 C 7.190000000000001 -8.088000000000006 7.184000000000001 -7.209000000000007 6.642000000000001 -6.665000000000006 z M 37.202 66.845 C 30.449 70.682 23.58 73.678 16.785 75.75 C 16.34 75.885 15.855 75.792 15.492 75.5 C 15.129 75.208 14.934 74.755 14.97 74.291 C 15.669 65.536 14.33 56.766 13.084 50.103 C 10.631 36.965 5.369 24.603 -2.134 14.351 C -2.529 13.811 -2.489 13.066 -2.0389999999999997 12.571000000000002 L 4.425 5.474 C 4.704 5.168 5.1 4.997 5.517 5.015 C 5.931 5.03 6.318 5.227 6.573 5.553 C 17.512 19.48 24.518 36.009 26.852 53.375 C 28.75 53.778 30.174 55.463 30.174 57.481 C 30.174 59.801 28.293 61.681000000000004 25.974 61.681000000000004 C 23.654 61.681000000000004 21.774 59.801 21.774 57.481 C 21.774 55.853 22.702 54.444 24.057000000000002 53.747 C 21.863 37.425 15.421 21.861 5.377 8.612 L 0.8129999999999997 13.623000000000001 C 8.205 24.025 13.396999999999998 36.433 15.852999999999998 49.586 C 17.031999999999996 55.897999999999996 18.293999999999997 64.067 17.907999999999998 72.437 C 23.593999999999998 70.556 29.325999999999997 68.01299999999999 34.986 64.86 L 33.415 52.867 C 31.136 35.435 24.485 18.808 14.144 4.613 C 13.745000000000001 4.739000000000001 13.319 4.808000000000001 12.878 4.808000000000001 C 10.558 4.808000000000001 8.678 2.9270000000000005 8.678 0.6080000000000005 C 8.678 -1.7119999999999993 10.558 -3.5919999999999996 12.878 -3.5919999999999996 C 15.197 -3.5919999999999996 17.078 -1.7119999999999997 17.078 0.6080000000000005 C 17.078 1.4590000000000005 16.823 2.2490000000000006 16.387999999999998 2.9100000000000006 C 27.025 17.495 33.864999999999995 34.584 36.208 52.502 L 37.902 65.438 C 37.977000000000004 66.006 37.7 66.562 37.202 66.845 M -40.699 28.014 C -40.763 28.014 -40.824999999999996 28.006999999999998 -40.888999999999996 28.003999999999998 C -44.032999999999994 35.992 -46.193 44.342 -47.309 52.867 L -48.88 64.86 C -43.174 68.036 -37.403000000000006 70.592 -31.687 72.475 C -31.638 54.998999999999995 -27.731 37.568999999999996 -20.612000000000002 23.188999999999993 C -20.406000000000002 22.772999999999993 -20.009 22.485999999999994 -19.55 22.419999999999995 C -19.483 22.409999999999993 -19.416 22.405999999999995 -19.35 22.405999999999995 C -18.96 22.405999999999995 -18.583000000000002 22.567999999999994 -18.314 22.859999999999996 C -8.263 33.776999999999994 -5.699 42.309999999999995 -5.595000000000001 42.66799999999999 C -5.557 42.79599999999999 -5.538 42.928999999999995 -5.538 43.06199999999999 L -5.538 61.55599999999999 C -3.9120000000000004 62.13599999999999 -2.7470000000000003 63.68399999999999 -2.7470000000000003 65.50899999999999 C -2.7470000000000003 67.82899999999998 -4.627000000000001 69.70899999999999 -6.947000000000001 69.70899999999999 C -9.266000000000002 69.70899999999999 -11.146 67.829 -11.146 65.50899999999999 C -11.146 63.68399999999998 -9.981000000000002 62.13599999999999 -8.355 61.55599999999998 L -8.355 43.282 C -8.75 42.101 -11.296 35.14 -18.993000000000002 26.320999999999998 C -21.254 31.166999999999998 -23.14 36.349 -24.647000000000002 41.742 L -18.907000000000004 47.482 C -18.436000000000003 47.3 -17.926000000000002 47.196 -17.391000000000005 47.196 C -15.072000000000006 47.196 -13.191000000000006 49.076 -13.191000000000006 51.396 C -13.191000000000006 53.715 -15.072000000000006 55.596000000000004 -17.391000000000005 55.596000000000004 C -19.711000000000006 55.596000000000004 -21.591000000000005 53.715 -21.591000000000005 51.396 C -21.591000000000005 50.643 -21.391000000000005 49.938 -21.044000000000004 49.327 L -25.478000000000005 44.893 C -27.820000000000004 54.346000000000004 -28.997000000000007 64.37100000000001 -28.860000000000007 74.383 C -28.854000000000006 74.833 -29.063000000000006 75.258 -29.422000000000008 75.52799999999999 C -29.782000000000007 75.79899999999999 -30.24900000000001 75.88099999999999 -30.67900000000001 75.74999999999999 C -37.46400000000001 73.68099999999998 -44.33300000000001 70.68499999999999 -51.09500000000001 66.84499999999998 C -51.59300000000001 66.56199999999998 -51.87000000000001 66.00599999999999 -51.796000000000014 65.43799999999999 L -50.10200000000001 52.50199999999999 C -48.95400000000001 43.73599999999999 -46.73200000000001 35.15299999999999 -43.49600000000001 26.939999999999987 C -44.35500000000001 26.17099999999999 -44.89900000000001 25.056999999999988 -44.89900000000001 23.813999999999986 C -44.89900000000001 21.493999999999986 -43.019000000000005 19.613999999999987 -40.699000000000005 19.613999999999987 C -38.38 19.613999999999987 -36.499 21.493999999999986 -36.499 23.813999999999986 C -36.499 26.132999999999985 -38.38 28.013999999999985 -40.699000000000005 28.013999999999985 M -24.418000000000006 76.69599999999998 C -24.418000000000006 79.01499999999999 -22.537000000000006 80.89599999999999 -20.218000000000007 80.89599999999999 C -18.650000000000006 80.89599999999999 -17.28600000000001 80.03599999999999 -16.564000000000007 78.76299999999999 C -8.588000000000008 79.74799999999999 -0.5110000000000063 79.50299999999999 7.4489999999999945 78.03099999999999 C 8.107999999999995 77.90899999999999 8.588999999999995 77.341 8.600999999999994 76.67099999999999 C 8.684 72.08 8.728 67.941 8.434 63.779 C 6.985 43.252 -1.044 23.718 -14.279 8.34 C -13.983 7.764 -13.813 7.114 -13.813 6.422 C -13.813 4.103 -15.693000000000001 2.2219999999999995 -18.012 2.2219999999999995 C -20.332 2.2219999999999995 -22.212 4.103 -22.212 6.422 C -22.212 8.741999999999999 -20.332 10.622 -18.012 10.622 C -17.414 10.622 -16.847 10.495 -16.332 10.27 C -3.5390000000000015 25.177 4.221 44.096000000000004 5.625 63.977000000000004 C 5.886 67.676 5.872 71.397 5.805 75.462 C -1.4610000000000003 76.69500000000001 -8.815 76.864 -16.083000000000002 75.98 C -16.423000000000002 74.00200000000001 -18.142000000000003 72.49600000000001 -20.218000000000004 72.49600000000001 C -22.537000000000003 72.49600000000001 -24.418000000000003 74.376 -24.418000000000003 76.69600000000001" stroke-linecap="round" />
</g>
</g>
</g>
<g transform="matrix(1.9211538461538462 0 0 1.9211538461538462 641.9080968933791 907.8286394657734)" id="text-logo"  >
<g style=""  paint-order="stroke"   >
		<g transform="matrix(1 0 0 1 0 0)" id="text-logo-path-0"  >
<path style="stroke: rgb(84,84,85); stroke-width: 1; stroke-dasharray: none; stroke-linecap: butt; stroke-dashoffset: 0; stroke-linejoin: miter; stroke-miterlimit: 4; fill: rgb(9,66,143); fill-rule: nonzero; opacity: 1;"  paint-order="stroke"  transform=" translate(-236.49541342959247, 43.595)" d="M 68.04 -2.02 L 82.15 -85.81 C 82.4 -87.44 81.52 -88.2 80.01 -88.2 L 51.28 -88.2 C 49.9 -88.2 49.01 -87.57 48.89 -86.06 L 42.46 -33.01 C 42.34 -32 42.21 -31.5 42.21 -31.5 C 41.33 -31.5 40.82 -31.88 40.7 -32.89 L 34.27 -86.06 C 34.15 -87.57 33.26 -88.2 31.88 -88.2 L 3.15 -88.2 C 1.64 -88.2 0.76 -87.44 1.01 -85.81 L 15.12 -2.02 C 15.37 -0.63 16.25 0 17.64 0 L 65.52 0 C 66.91 0 67.79 -0.63 68.04 -2.02 Z M 114.16 -36.54 C 90.97 -36.54 83.92 -32.26 83.92 -18.02 C 83.92 -3.78 94.5 1.01 114.79 1.01 C 131.54 1.01 141.62 -0.88 147.42 -3.91 C 148.55 -4.54 148.93 -5.42 148.93 -6.55 L 148.93 -45.74 C 148.93 -57.2 135.95 -66.53 114.79 -66.53 C 103.57 -66.53 97.02 -65.9 89.71 -64.13 C 88.45 -63.76 87.82 -62.87 87.82 -61.61 L 87.82 -43.97 C 87.82 -42.46 88.7 -41.58 90.22 -41.71 L 118.19 -43.34 C 119.2 -43.34 119.7 -42.97 119.7 -41.96 L 119.7 -38.05 C 119.7 -37.17 119.07 -36.54 118.19 -36.54 Z M 111.64 -19.78 L 111.64 -26.84 C 111.64 -27.72 112.27 -28.35 113.15 -28.35 L 118.19 -28.35 C 119.07 -28.35 119.7 -27.72 119.7 -26.84 L 119.7 -19.78 C 119.7 -18.9 119.07 -18.27 118.19 -18.27 L 113.15 -18.27 C 112.27 -18.27 111.64 -18.9 111.64 -19.78 Z M 179.3 0 L 219.37 0 C 220.75 0 221.63 -0.88 221.63 -2.27 L 221.63 -63.25 C 221.63 -64.64 220.75 -65.52 219.37 -65.52 L 193.41 -65.52 C 192.02 -65.52 191.14 -64.64 191.27 -63.25 L 192.78 -27.34 C 192.78 -26.33 192.4 -25.83 191.39 -25.83 L 184.84 -25.83 C 183.83 -25.83 183.46 -26.33 183.46 -27.34 L 184.97 -63.25 C 185.09 -64.64 184.21 -65.52 182.83 -65.52 L 156.87 -65.52 C 155.48 -65.52 154.6 -64.64 154.6 -63.25 L 154.6 -24.7 C 154.6 -8.69 163.3 0 179.3 0 Z M 260.69 -29.61 L 264.47 -30.11 C 265.48 -30.24 266.11 -29.74 266.11 -28.73 L 266.11 -2.14 C 266.11 -1.26 265.73 -0.63 264.73 -0.5 C 260.06 0.5 255.02 1.01 247.97 1.01 C 234.74 1.01 229.07 -3.53 229.07 -15.12 L 229.07 -86.69 C 229.07 -87.57 229.7 -88.2 230.58 -88.2 L 256.79 -88.2 C 257.67 -88.2 258.3 -87.57 258.3 -86.69 L 258.3 -31.75 C 258.3 -30.24 259.18 -29.36 260.69 -29.61 Z M 316.89 -4.41 L 316.89 -27.09 C 316.89 -28.6 316.01 -29.36 314.5 -29.11 L 301.14 -27.22 C 300.13 -27.09 299.5 -27.59 299.5 -28.6 L 299.5 -40.45 C 299.5 -41.33 300.13 -41.96 301.01 -41.96 L 313.87 -41.96 C 315.25 -41.96 316.13 -42.84 316.13 -44.23 L 316.13 -63.25 C 316.13 -64.64 315.25 -65.52 313.87 -65.52 L 301.01 -65.52 C 300.13 -65.52 299.5 -66.15 299.5 -67.03 L 299.5 -76.73 C 299.5 -78.37 298.49 -79.13 296.98 -78.62 L 272.16 -71.19 C 270.9 -70.81 270.27 -69.8 270.27 -68.54 L 270.27 -24.7 C 270.27 -8.69 278.96 1.01 294.97 1.01 C 301.64 1.01 308.32 0.5 315.13 -1.89 C 316.39 -2.27 316.89 -3.15 316.89 -4.41 Z M 350.78 -36.54 C 327.6 -36.54 320.54 -32.26 320.54 -18.02 C 320.54 -3.78 331.13 1.01 351.41 1.01 C 368.17 1.01 378.25 -0.88 384.05 -3.91 C 385.18 -4.54 385.56 -5.42 385.56 -6.55 L 385.56 -45.74 C 385.56 -57.2 372.58 -66.53 351.41 -66.53 C 340.2 -66.53 333.65 -65.9 326.34 -64.13 C 325.08 -63.76 324.45 -62.87 324.45 -61.61 L 324.45 -43.97 C 324.45 -42.46 325.33 -41.58 326.84 -41.71 L 354.82 -43.34 C 355.82 -43.34 356.33 -42.97 356.33 -41.96 L 356.33 -38.05 C 356.33 -37.17 355.7 -36.54 354.82 -36.54 Z M 348.26 -19.78 L 348.26 -26.84 C 348.26 -27.72 348.89 -28.35 349.78 -28.35 L 354.82 -28.35 C 355.7 -28.35 356.33 -27.72 356.33 -26.84 L 356.33 -19.78 C 356.33 -18.9 355.7 -18.27 354.82 -18.27 L 349.78 -18.27 C 348.89 -18.27 348.26 -18.9 348.26 -19.78 Z M 441.76 0 L 469.98 0 C 471.62 0 472.37 -1.13 471.87 -2.65 L 458.14 -43.09 C 457.88 -43.72 457.88 -44.48 458.14 -45.11 L 471.37 -85.68 C 471.87 -87.19 471.11 -88.2 469.48 -88.2 L 441.63 -88.2 C 440.37 -88.2 439.49 -87.7 439.11 -86.31 L 431.8 -62.24 C 431.55 -61.36 430.67 -60.61 430.04 -61.36 C 429.91 -61.49 429.91 -61.74 429.79 -61.99 L 422.48 -86.31 C 422.1 -87.7 421.22 -88.2 419.96 -88.2 L 392.11 -88.2 C 390.47 -88.2 389.72 -87.19 390.22 -85.68 L 403.45 -45.11 C 403.7 -44.48 403.7 -43.72 403.45 -43.09 L 389.72 -2.65 C 389.21 -1.13 389.97 0 391.61 0 L 419.83 0 C 421.09 0 422.1 -0.63 422.48 -1.89 L 429.66 -23.56 C 429.91 -24.44 430.92 -25.07 431.42 -24.32 C 431.55 -24.19 431.68 -23.94 431.8 -23.69 L 439.11 -1.89 C 439.49 -0.63 440.5 0 441.76 0 Z" stroke-linecap="round" />
</g>
</g>
</g>
</svg>